<?xml version="1.0" encoding="UTF-8" standalone="no"?>
<!DOCTYPE svg PUBLIC "-//W3C//DTD SVG 1.1//EN"
 "http://www.w3.org/Graphics/SVG/1.1/DTD/svg11.dtd">
<!-- Generated by graphviz version 2.40.1 (20161225.0304)
 -->
<!-- Title: dependencies Pages: 1 -->
<svg width="776pt" height="284pt"
 viewBox="0.00 0.00 776.00 284.00" xmlns="http://www.w3.org/2000/svg" xmlns:xlink="http://www.w3.org/1999/xlink">
<g id="graph0" class="graph" transform="scale(1 1) rotate(0) translate(4 280)">
<title>dependencies</title>
<polygon fill="#ffffff" stroke="transparent" points="-4,4 -4,-280 772,-280 772,4 -4,4"/>
<text text-anchor="start" x="363.0091" y="-42.4" font-family="sans-serif" font-weight="bold" font-size="14.00" fill="#000000">Legend</text>
<polygon fill="#ffffb3" stroke="transparent" points="150,-10 150,-30 170,-30 170,-10 150,-10"/>
<text text-anchor="start" x="173.629" y="-15.4" font-family="sans-serif" font-size="14.00" fill="#000000"> &#160;Declarations</text>
<polygon fill="#8dd3c7" stroke="transparent" points="263,-10 263,-30 283,-30 283,-10 263,-10"/>
<text text-anchor="start" x="286.7251" y="-15.4" font-family="sans-serif" font-size="14.00" fill="#000000"> &#160;Module</text>
<polygon fill="#80b1d3" stroke="transparent" points="349,-10 349,-30 369,-30 369,-10 349,-10"/>
<text text-anchor="start" x="372.7812" y="-15.4" font-family="sans-serif" font-size="14.00" fill="#000000"> &#160;Bootstrap</text>
<polygon fill="#fdb462" stroke="transparent" points="446,-10 446,-30 466,-30 466,-10 446,-10"/>
<text text-anchor="start" x="469.6732" y="-15.4" font-family="sans-serif" font-size="14.00" fill="#000000"> &#160;Providers</text>
<polygon fill="#fb8072" stroke="transparent" points="542,-10 542,-30 562,-30 562,-10 542,-10"/>
<text text-anchor="start" x="565.7258" y="-15.4" font-family="sans-serif" font-size="14.00" fill="#000000"> &#160;Exports</text>
<g id="clust1" class="cluster">
<title>cluster_AppModule</title>
<polygon fill="none" stroke="#000000" stroke-dasharray="1,5" points="8,-70 8,-268 760,-268 760,-70 8,-70"/>
</g>
<g id="clust2" class="cluster">
<title>cluster_AppModule_declarations</title>
<polygon fill="none" stroke="#000000" points="298,-78 298,-130 752,-130 752,-78 298,-78"/>
</g>
<g id="clust6" class="cluster">
<title>cluster_AppModule_imports</title>
<polygon fill="none" stroke="#000000" points="168,-78 168,-130 290,-130 290,-78 168,-78"/>
</g>
<g id="clust8" class="cluster">
<title>cluster_AppModule_bootstrap</title>
<polygon fill="none" stroke="#000000" points="315,-208 315,-260 439,-260 439,-208 315,-208"/>
</g>
<g id="clust9" class="cluster">
<title>cluster_AppModule_providers</title>
<polygon fill="none" stroke="#000000" points="16,-78 16,-130 160,-130 160,-78 16,-78"/>
</g>
<!-- AppComponent -->
<g id="node1" class="node">
<title>AppComponent</title>
<polygon fill="#ffffb3" stroke="#000000" points="743.9399,-122 638.0601,-122 638.0601,-86 743.9399,-86 743.9399,-122"/>
<text text-anchor="middle" x="691" y="-99.8" font-family="Times,serif" font-size="14.00" fill="#000000">AppComponent</text>
</g>
<!-- AppModule -->
<g id="node4" class="node">
<title>AppModule</title>
<polygon fill="#8dd3c7" stroke="#000000" points="418.6571,-187 415.6571,-191 394.6571,-191 391.6571,-187 335.3429,-187 335.3429,-151 418.6571,-151 418.6571,-187"/>
<text text-anchor="middle" x="377" y="-164.8" font-family="Times,serif" font-size="14.00" fill="#000000">AppModule</text>
</g>
<!-- AppComponent&#45;&gt;AppModule -->
<g id="edge1" class="edge">
<title>AppComponent&#45;&gt;AppModule</title>
<path fill="none" stroke="#000000" d="M691,-122.2843C691,-143.3211 691,-175 691,-175 691,-175 428.6968,-175 428.6968,-175"/>
<polygon fill="#000000" stroke="#000000" points="428.6968,-171.5001 418.6968,-175 428.6967,-178.5001 428.6968,-171.5001"/>
</g>
<!-- ClientDialogComponent -->
<g id="node2" class="node">
<title>ClientDialogComponent</title>
<polygon fill="#ffffb3" stroke="#000000" points="619.6582,-122 466.3418,-122 466.3418,-86 619.6582,-86 619.6582,-122"/>
<text text-anchor="middle" x="543" y="-99.8" font-family="Times,serif" font-size="14.00" fill="#000000">ClientDialogComponent</text>
</g>
<!-- ClientDialogComponent&#45;&gt;AppModule -->
<g id="edge2" class="edge">
<title>ClientDialogComponent&#45;&gt;AppModule</title>
<path fill="none" stroke="#000000" d="M543,-122.0225C543,-139.3734 543,-163 543,-163 543,-163 428.8888,-163 428.8888,-163"/>
<polygon fill="#000000" stroke="#000000" points="428.8888,-159.5001 418.8888,-163 428.8888,-166.5001 428.8888,-159.5001"/>
</g>
<!-- DashboardComponent -->
<g id="node3" class="node">
<title>DashboardComponent</title>
<polygon fill="#ffffb3" stroke="#000000" points="447.9734,-122 306.0266,-122 306.0266,-86 447.9734,-86 447.9734,-122"/>
<text text-anchor="middle" x="377" y="-99.8" font-family="Times,serif" font-size="14.00" fill="#000000">DashboardComponent</text>
</g>
<!-- DashboardComponent&#45;&gt;AppModule -->
<g id="edge3" class="edge">
<title>DashboardComponent&#45;&gt;AppModule</title>
<path fill="none" stroke="#000000" d="M377,-122.1061C377,-122.1061 377,-140.991 377,-140.991"/>
<polygon fill="#000000" stroke="#000000" points="373.5001,-140.9909 377,-150.991 380.5001,-140.991 373.5001,-140.9909"/>
</g>
<!-- AppComponent  -->
<g id="node6" class="node">
<title>AppComponent </title>
<polygon fill="#80b1d3" stroke="#000000" points="431.439,-252 322.561,-252 322.561,-216 431.439,-216 431.439,-252"/>
<text text-anchor="middle" x="377" y="-229.8" font-family="Times,serif" font-size="14.00" fill="#000000">AppComponent </text>
</g>
<!-- AppModule&#45;&gt;AppComponent  -->
<g id="edge5" class="edge">
<title>AppModule&#45;&gt;AppComponent </title>
<path fill="none" stroke="#000000" stroke-dasharray="1,5" d="M377,-187.1061C377,-187.1061 377,-205.991 377,-205.991"/>
<polygon fill="#000000" stroke="#000000" points="373.5001,-205.9909 377,-215.991 380.5001,-205.991 373.5001,-205.9909"/>
</g>
<!-- MaterialModule -->
<g id="node5" class="node">
<title>MaterialModule</title>
<polygon fill="#8dd3c7" stroke="#000000" points="282.4706,-122 279.4706,-126 258.4706,-126 255.4706,-122 175.5294,-122 175.5294,-86 282.4706,-86 282.4706,-122"/>
<text text-anchor="middle" x="229" y="-99.8" font-family="Times,serif" font-size="14.00" fill="#000000">MaterialModule</text>
</g>
<!-- MaterialModule&#45;&gt;AppModule -->
<g id="edge4" class="edge">
<title>MaterialModule&#45;&gt;AppModule</title>
<path fill="none" stroke="#000000" d="M229,-122.0225C229,-139.3734 229,-163 229,-163 229,-163 324.985,-163 324.985,-163"/>
<polygon fill="#000000" stroke="#000000" points="324.9851,-166.5001 334.985,-163 324.985,-159.5001 324.9851,-166.5001"/>
</g>
<!-- ClientService -->
<g id="node7" class="node">
<title>ClientService</title>
<ellipse fill="#fdb462" stroke="#000000" cx="88" cy="-104" rx="63.6967" ry="18"/>
<text text-anchor="middle" x="88" y="-99.8" font-family="Times,serif" font-size="14.00" fill="#000000">ClientService</text>
</g>
<!-- ClientService&#45;&gt;AppModule -->
<g id="edge6" class="edge">
<title>ClientService&#45;&gt;AppModule</title>
<path fill="none" stroke="#000000" d="M88,-122.2843C88,-143.3211 88,-175 88,-175 88,-175 325.2856,-175 325.2856,-175"/>
<polygon fill="#000000" stroke="#000000" points="325.2856,-178.5001 335.2856,-175 325.2855,-171.5001 325.2856,-178.5001"/>
</g>
</g>
</svg>
